<?xml version="1.0" standalone="no"?>
<!DOCTYPE svg PUBLIC "-//W3C//DTD SVG 20010904//EN"
 "http://www.w3.org/TR/2001/REC-SVG-20010904/DTD/svg10.dtd">
<svg version="1.0" xmlns="http://www.w3.org/2000/svg"
 width="274.000000pt" height="274.000000pt" viewBox="0 0 274.000000 274.000000"
 preserveAspectRatio="xMidYMid meet">
<metadata>
Created by potrace 1.11, written by Peter Selinger 2001-2013
</metadata>
<g transform="translate(0.000000,274.000000) scale(0.100000,-0.100000)"
fill="#000000" stroke="none">
<path d="M1180 2661 c-165 -35 -307 -102 -445 -211 -33 -26 -68 -57 -79 -69
-10 -11 -23 -18 -28 -15 -4 3 -7 1 -6 -4 2 -6 -15 -32 -37 -59 -109 -131 -193
-299 -242 -483 -15 -58 -17 -148 -20 -882 -4 -812 -4 -817 17 -838 14 -14 33
-20 62 -20 37 0 46 5 100 63 32 34 63 61 68 59 6 -1 9 3 8 9 -4 15 173 218
190 218 7 1 10 -4 7 -9 -3 -6 -2 -10 4 -10 5 0 49 -55 97 -122 144 -203 149
-208 196 -208 32 0 46 6 69 31 16 17 29 35 29 41 0 5 5 6 10 3 6 -4 9 -3 8 2
-4 12 182 265 192 261 9 -4 82 -101 164 -216 76 -108 91 -122 137 -122 44 0
61 17 194 199 50 67 96 130 102 139 12 14 15 14 33 -3 11 -10 17 -22 14 -27
-3 -4 -2 -7 3 -6 13 4 74 -68 65 -76 -4 -4 -2 -6 4 -4 6 2 33 -22 59 -52 121
-137 158 -170 193 -170 46 0 68 14 81 52 17 49 14 1452 -4 1573 -27 187 -73
319 -164 465 -36 59 -142 189 -192 235 -30 28 -53 54 -51 58 1 5 -2 6 -7 3 -5
-4 -15 -1 -23 6 -46 44 -211 130 -302 158 -169 52 -351 63 -506 31z m343 -162
c131 -20 281 -91 395 -187 28 -24 49 -48 46 -54 -4 -6 -3 -8 3 -5 33 21 200
-237 248 -382 47 -144 47 -143 52 -829 5 -738 13 -681 -78 -577 -28 33 -78 88
-110 123 -53 55 -63 62 -98 62 -22 0 -44 -6 -51 -15 -7 -8 -17 -12 -23 -8 -6
3 -7 1 -3 -5 7 -11 -209 -312 -224 -312 -4 0 -47 54 -94 119 -155 214 -161
221 -205 221 -46 0 -66 -21 -212 -217 -50 -68 -95 -123 -100 -123 -4 0 -14 10
-20 23 -7 12 -24 38 -39 57 -15 19 -57 78 -95 130 -84 117 -98 130 -142 130
-38 0 -59 -18 -198 -172 -43 -49 -82 -88 -87 -88 -12 0 -10 1157 2 1265 44
389 303 720 644 822 108 33 264 41 389 22z"/>
<path d="M934 1780 c-111 -25 -164 -154 -102 -248 89 -133 306 -68 300 91 -4
103 -100 179 -198 157z"/>
<path d="M1743 1780 c-18 -4 -39 -13 -48 -20 -8 -6 -19 -9 -25 -5 -6 4 -9 3
-8 -2 1 -4 -5 -19 -14 -33 -41 -62 -40 -139 3 -201 10 -14 15 -30 11 -34 -4
-5 -1 -5 6 -1 7 4 24 1 37 -8 35 -23 120 -21 159 3 77 48 104 146 61 224 -31
58 -115 94 -182 77z"/>
</g>
</svg>
